#N canvas 0 0 450 300 10;
#X obj 148 277 dac~;
#X obj 401 151 vline~;
#X obj 299 148 mtof~;
#X obj 299 122 vline~;
#X obj 152 234 muug~;
#X obj 300 26 tgl 15 0 empty empty empty 17 7 0 10 -262144 -1 -1 1
1;
#X obj 22 115 -~;
#X obj 37 95 wrap~;
#X obj 37 74 +~ 0.4;
#X obj 22 53 phasor~ 100;
#X obj 22 33 mtof;
#X floatatom 22 12 5 0 0 0 - - -;
#X obj 152 258 *~ 0.5;
#X obj 321 28 metro 333;
#X msg 299 96 108 166.6 \, 60 166.6 166.6;
#X obj 102 115 -~;
#X obj 117 95 wrap~;
#X obj 102 53 phasor~ 100;
#X obj 117 74 +~ 0.3;
#X obj 101 33 * 2.01;
#X msg 400 130 0.8;
#X obj 182 115 -~;
#X obj 197 95 wrap~;
#X obj 182 53 phasor~ 100;
#X obj 181 33 * 3.02;
#X obj 197 74 +~ 0.2;
#X obj 23 180 expr~ 3*sin($v1*2);
#X obj 153 212 hip~ 5;
#X connect 1 0 4 2;
#X connect 2 0 4 1;
#X connect 3 0 2 0;
#X connect 4 0 12 0;
#X connect 5 0 13 0;
#X connect 6 0 26 0;
#X connect 7 0 6 1;
#X connect 8 0 7 0;
#X connect 9 0 6 0;
#X connect 9 0 8 0;
#X connect 10 0 9 0;
#X connect 10 0 19 0;
#X connect 10 0 24 0;
#X connect 11 0 10 0;
#X connect 12 0 0 0;
#X connect 12 0 0 1;
#X connect 13 0 14 0;
#X connect 13 0 20 0;
#X connect 14 0 3 0;
#X connect 15 0 26 0;
#X connect 16 0 15 1;
#X connect 17 0 15 0;
#X connect 17 0 18 0;
#X connect 18 0 16 0;
#X connect 19 0 17 0;
#X connect 20 0 1 0;
#X connect 21 0 26 0;
#X connect 22 0 21 1;
#X connect 23 0 21 0;
#X connect 23 0 25 0;
#X connect 24 0 23 0;
#X connect 25 0 22 0;
#X connect 26 0 27 0;
#X connect 27 0 4 0;
